<svg width="19" height="18" viewBox="0 0 19 18" fill="none" xmlns="http://www.w3.org/2000/svg">
<path d="M1.03335 18C0.765346 18 0.50766 17.8969 0.301504 17.7011C-0.100501 17.2991 -0.100501 16.6497 0.301504 16.2477L16.2477 0.301504C16.6497 -0.100501 17.2991 -0.100501 17.7011 0.301504C18.1031 0.703508 18.1031 1.35294 17.7011 1.75494L1.75491 17.7011C1.55906 17.9073 1.30135 18 1.03335 18Z" fill="#020202"/>
<path d="M16.9795 18C16.7115 18 16.4538 17.8969 16.2477 17.7011L0.301504 1.75494C-0.100501 1.35294 -0.100501 0.703508 0.301504 0.301504C0.703508 -0.100501 1.3529 -0.100501 1.75491 0.301504L17.7011 16.2477C18.1031 16.6497 18.1031 17.2991 17.7011 17.7011C17.5052 17.9073 17.2475 18 16.9795 18Z" fill="#020202"/>
</svg>
