<svg width="100" height="99" viewBox="0 0 100 99" fill="none" xmlns="http://www.w3.org/2000/svg">
<path d="M96.5374 84.9129C96.3551 86.0678 95.8689 87.1011 95.1395 88.0129C94.4709 88.8031 93.6806 89.5933 92.8904 90.2619C91.1277 91.6599 89.061 92.6932 86.812 93.058C84.5022 93.4834 82.1925 92.9972 80.0651 92.0854C77.9377 91.1737 76.114 89.7148 74.3513 88.1952C72.467 86.5541 70.7044 84.8521 69.0025 83.0894C68.8809 82.9678 68.8808 82.907 68.8808 82.7855C67.969 81.8129 67.3613 80.5365 66.875 79.26C65.9633 76.9503 65.173 74.6405 64.3828 72.3307C64.0181 71.1758 63.7142 70.0209 63.6534 68.8052C63.6534 67.5287 63.8965 66.3131 64.2004 65.0974C64.6867 63.0307 65.173 60.9033 66.8142 59.3837C67.6044 58.6543 68.5768 58.1072 69.4886 57.6209C70.5219 57.0739 71.5553 56.5268 72.7102 56.2837C74.8376 55.7974 76.9651 56.466 78.7886 57.5602C79.4572 57.9856 80.1259 58.4719 80.6729 59.0798C80.7945 58.8974 80.9769 58.8367 81.1592 58.8974C82.5573 59.2622 83.6512 60.1131 84.6846 61.0857C84.8669 61.0249 85.0493 61.0248 85.1709 61.2072C86.3258 62.4229 87.5415 63.6385 88.6964 64.915C92.465 69.1091 95.9296 74.1542 96.4159 79.9287C96.4159 79.9894 96.4159 79.9894 96.4159 80.0502C96.5375 80.4757 96.5375 80.9011 96.5983 81.3266C96.7198 82.4815 96.659 83.758 96.5374 84.9129Z" fill="white"/>
<path d="M57.5751 24.9197C57.0888 25.8923 56.5418 26.8648 56.2379 27.8373C55.2653 31.0589 54.9613 34.4628 55.6907 37.8059C56.0554 39.5078 56.5417 41.2098 56.9064 42.9725C57.2103 44.6745 57.2711 46.3764 57.0888 48.1391C56.9064 49.9019 56.5417 51.6038 55.9946 53.3058C55.5084 54.9469 54.9614 56.6489 54.232 58.2292C53.5633 59.7488 52.6515 60.9646 51.3143 61.9371C49.9771 62.9097 48.5183 63.5783 46.9379 64.0646C43.6556 65.1587 40.2516 65.5234 36.8477 65.9488C33.383 66.3743 29.8576 66.7998 26.3929 66.9821C23.2929 67.1645 20.1321 67.1645 17.093 66.4351C13.993 65.7664 11.2578 64.3076 8.94797 62.1802C7.79308 61.0861 6.75972 59.8705 5.7264 58.594C4.75385 57.3175 3.84213 56.041 3.1735 54.5822C1.83626 51.8469 1.34993 48.6862 2.50482 45.7686C3.05188 44.3705 3.90291 43.0941 4.99702 42.0608C6.03034 41.0882 7.36756 40.4196 8.15775 39.2647C9.13029 37.9275 8.82643 36.1648 9.13035 34.5844C9.43427 33.2471 10.1028 32.0922 11.0146 31.1197C12.9596 28.9922 15.5734 27.8374 18.0047 26.4393C19.2204 25.7099 20.4361 24.9197 21.4087 23.8864C22.442 22.7922 23.0499 21.4551 23.4146 19.9963C23.7793 18.4159 24.0224 16.8354 24.6302 15.3766C25.1773 14.1002 25.9674 12.9453 26.9399 11.912C29.0066 9.72375 31.6811 8.2649 34.5987 7.47471C37.7595 6.68452 41.1026 6.62375 44.3242 7.11002C47.3026 7.59629 50.2202 8.56888 52.7124 10.2708C55.0829 11.912 56.9671 14.2218 57.9397 16.9571C58.426 18.3551 58.6692 19.8139 58.6692 21.2727C58.7908 22.4884 58.1829 23.7041 57.5751 24.9197Z" fill="#020202"/>
<path d="M56.2377 43.2155C56.2377 43.5802 56.2377 44.0057 56.1769 44.3704C56.1161 45.1606 55.9945 45.9508 55.8121 46.741C55.6298 47.4704 55.4474 48.0782 54.9003 48.6253C54.4141 49.1116 53.7455 49.4762 53.1377 49.7194C51.8004 50.388 50.3416 50.7527 48.8828 51.1174C45.7828 51.8468 42.5005 52.2116 39.3398 51.9076C36.4829 51.6645 33.6261 50.9351 31.1339 49.537C29.979 48.9292 28.7026 48.139 27.9124 47.0449C27.7908 46.8626 27.73 46.6802 27.6084 46.5586C27.4869 46.4978 27.3653 46.3763 27.2437 46.3155C26.3927 45.7684 25.6025 45.2213 24.8123 44.5527C24.5692 44.6135 24.3262 44.3704 24.3262 44.1273C24.2654 44.0665 24.2653 44.0665 24.2045 44.0057C24.0829 43.8842 23.9614 43.5802 24.1438 43.4587C25.1771 42.3646 26.636 42.4253 27.9732 42.3038C28.3379 42.3038 28.6418 42.243 29.0065 42.1822C29.3104 42.1214 29.6752 42.1214 29.7967 41.7567C30.1006 40.9665 30.283 40.1763 30.5261 39.3861C31.0124 37.8057 31.5593 36.2254 32.1064 34.7058C32.5927 33.3685 33.2005 32.0921 34.2338 31.0587C34.4162 30.8764 34.6594 30.694 34.9025 30.5117C35.3888 29.9646 35.9966 29.4784 36.726 29.1744C38.0633 28.5666 39.522 28.8098 40.9201 29.1137C42.075 29.4176 43.2907 29.7823 44.0809 30.694C45.0535 31.7882 44.8103 33.1862 44.324 34.4018C44.0809 35.0705 43.7161 35.7391 43.5338 36.4685C43.2907 37.1979 43.1691 37.9881 43.1083 38.7783C43.0476 39.5077 42.9868 40.3587 43.1692 41.0273C43.3515 41.5136 43.777 41.8782 44.2025 42.0606C45.4789 42.6077 46.8162 42.1214 47.971 41.6351C48.7005 41.392 49.3691 41.1489 50.1593 41.0273C50.9495 40.9057 51.6788 40.9057 52.469 40.9057C53.2592 40.9057 54.0495 40.9665 54.8397 41.0881C55.4475 41.1489 56.1161 41.2704 56.2984 41.9998C56.2984 42.4861 56.2377 42.8508 56.2377 43.2155Z" fill="white"/>
<path d="M54.1711 40.2368C54.0495 40.5407 53.8671 40.8447 53.6848 41.1486C52.5907 41.3309 51.6182 41.6348 51.0712 41.7564C50.6457 41.878 50.5241 41.878 50.4025 41.878C50.1594 41.878 49.9771 41.6956 49.9771 41.4525C49.9771 41.2094 50.1593 41.0878 50.3417 41.027C50.4024 41.027 50.6456 40.9662 50.828 40.9054C51.5574 40.7839 52.7123 40.48 54.1711 40.2368Z" fill="white"/>
<path d="M55.9946 92.8153C55.8123 93.7878 55.2653 94.6388 54.5359 95.3074C53.7457 95.976 52.7731 96.4016 51.8613 96.8878C51.7397 96.9486 51.6182 96.9486 51.5574 96.8878C48.579 98.3467 44.8712 97.7388 41.7104 97.0094C41.5889 97.0094 41.4673 96.8878 41.4065 96.7662C40.6771 96.5839 39.9477 96.3408 39.2791 95.9761C37.5771 95.1251 36.0576 93.8487 34.5987 92.633C33.1399 91.3565 31.8026 90.0192 30.4654 88.6212C27.9125 85.7643 25.7243 82.6644 23.9616 79.2605C23.9008 79.139 23.9008 79.0173 23.9616 78.8958C23.2322 77.9232 22.5635 76.8899 22.2596 75.6743C22.1988 75.4311 22.3812 75.2487 22.6243 75.2487C22.6243 75.1879 22.685 75.1272 22.685 75.0664C22.6243 74.8841 22.5635 74.7017 22.5635 74.5194C22.2596 72.3311 24.0831 70.69 25.4203 69.292C27.0007 67.7116 28.642 66.2527 30.4047 64.9155C31.2557 64.2469 32.1674 63.639 33.0791 63.092C33.9909 62.5449 34.9635 61.9979 35.9968 61.8155C37.0301 61.6332 38.0027 61.9979 38.7321 62.7273C39.4615 63.5175 40.0085 64.5508 40.5556 65.4625C41.7713 67.4684 42.9262 69.4743 44.2026 71.4802C45.3575 73.3645 46.634 75.188 48.032 76.9507C50.5242 80.1115 53.3201 83.1507 54.9005 86.8585C55.7515 88.7428 56.4201 90.8702 55.9946 92.8153Z" fill="white"/>
<path d="M83.1043 57.804C82.8612 57.9255 82.6181 58.1078 82.3749 58.2294C78.3024 60.6608 74.2298 63.153 70.1573 65.5843C70.0358 67.5294 69.2455 69.4137 67.969 70.8725C67.8475 70.9941 67.726 71.0548 67.6044 70.994C67.3613 71.3587 66.9966 71.7235 66.8142 72.0882C66.875 72.1489 66.9966 72.2097 66.9966 72.3921C67.5436 76.2215 68.2122 80.0509 68.9416 83.8803C69.0024 84.0626 68.8809 84.2449 68.6986 84.3057C65.7809 85.4606 62.5593 85.3998 59.5201 85.2782C56.6025 85.2175 53.6849 85.1567 50.828 84.9135C49.43 84.792 48.0928 84.5489 46.7555 84.1234C46.4516 84.0018 46.2085 83.9411 45.9046 83.8195C45.3576 83.6979 44.8104 83.4547 44.2633 83.1508C43.1084 82.3606 42.6223 81.145 42.2576 79.8685C41.8321 78.3489 41.3457 76.7685 40.9202 75.2489C40.3124 72.8783 39.7653 70.447 39.4006 68.0157C39.2791 67.8333 39.1575 67.651 39.0967 67.4686C35.5105 69.4137 31.8635 71.4195 28.2773 73.3646C26.393 74.3979 24.5694 75.3705 22.6851 76.4038C22.4419 76.5254 22.1988 76.6469 21.9557 76.7685C21.8949 76.7077 21.8949 76.647 21.8341 76.5862C21.7126 76.4038 21.6518 76.2215 21.5302 76.0999C21.4694 76.0391 21.4695 75.9784 21.4087 75.9176C14.6617 64.4294 12.1695 56.102 14.0538 51.1177C15.7557 46.6197 19.8891 44.31 23.2322 43.0943C23.3538 43.0335 23.4752 43.0335 23.5968 42.9727C23.8399 42.8511 24.144 42.7903 24.4479 42.7295L24.6303 42.8511C24.691 42.9119 24.7518 42.9727 24.7518 43.0334C24.8126 43.0334 24.8126 43.0335 24.8733 42.9727C25.0557 43.0335 25.238 43.155 25.4203 43.2158C29.3105 45.0393 36.2399 47.5315 43.2909 46.6805C49.4908 45.9511 52.3476 43.2766 53.6848 41.2099C53.8672 40.906 54.0496 40.6021 54.1711 40.2982C54.4751 40.2374 54.779 40.1766 55.0829 40.1766C57.6358 39.8727 60.7358 39.9335 63.1063 41.3315C66.0847 43.0943 72.7103 48.1394 79.2749 54.3393C80.4298 55.2511 81.5238 56.2236 82.5572 57.2569C82.7395 57.3785 82.922 57.6216 83.1043 57.804Z" fill="#491DC5"/>
<path d="M54.475 28.2629C54.1711 29.7217 53.5633 31.1197 52.6515 32.2746C50.8888 34.5236 48.1535 35.9216 45.2359 35.9216C45.1751 35.9216 45.1751 35.9216 45.1144 35.9216C44.8712 35.9216 44.7496 35.6785 44.7496 35.4962C44.2633 35.5569 43.7771 35.5569 43.23 35.5569H43.1693C42.4399 37.0765 41.5889 38.5961 40.434 39.8726C39.2791 41.149 37.7594 42.1216 36.0575 42.3647C35.0241 42.4863 33.9908 42.4255 33.0183 42.3039C32.4712 42.2431 31.985 42.2432 31.438 42.1824C31.0125 42.1216 30.587 42.1216 30.3438 41.7569C30.1007 41.3921 30.2222 40.9666 30.283 40.6019C30.4046 40.1157 30.587 39.6295 30.7086 39.1432C31.0125 38.1706 31.3164 37.1981 31.6811 36.2863C32.2281 34.7059 32.8967 33.1863 33.6261 31.6667C33.2614 31.5452 33.2615 30.8766 32.9576 30.6334C32.0458 29.9648 31.0733 29.4786 30.7086 28.506C30.6478 28.3844 30.6478 28.3236 30.7086 28.2629C30.4047 27.5942 30.3438 26.7432 30.5869 26.0138C30.9516 24.7981 32.0458 24.0688 33.2007 24.008C33.8085 23.9472 34.4771 24.0687 35.0242 24.4334C35.0242 24.4334 35.0849 24.3727 35.1457 24.3727C35.8751 24.008 36.6045 23.5217 37.2731 22.9746C37.3339 22.9138 37.4556 22.7923 37.5164 22.7315C38.3066 21.9414 39.0968 21.1511 39.8262 20.361C41.2242 18.9629 42.6829 17.5649 43.9594 15.9845C44.5064 15.3158 44.9928 14.5865 45.4183 13.7963C45.783 13.1276 46.0261 12.3375 46.877 12.2767C47.6672 12.2159 48.3358 12.7022 49.0045 13.0669C49.6731 13.4924 50.4025 13.9178 51.0104 14.4041C52.2868 15.3766 53.3809 16.5923 53.9887 18.1119C54.5965 19.6315 54.7789 21.3335 54.7789 22.9746C54.7789 24.6766 54.7789 26.5609 54.475 28.2629Z" fill="white"/>
<path d="M55.0828 19.2059C54.7789 18.1726 54.4142 17.2 53.8671 16.2883C53.3201 15.3765 52.6514 14.4648 51.7397 13.7961C51.3142 13.4922 50.8279 14.1608 51.2534 14.4648C52.0436 15.0118 52.6515 15.8628 53.1377 16.7138C53.624 17.5648 53.9887 18.4765 54.2926 19.4491C54.7789 21.3334 54.7789 23.3392 54.2319 25.2235C54.1103 25.7098 54.8397 26.0137 54.9613 25.5275C55.5691 23.4608 55.6299 21.2726 55.0828 19.2059Z" fill="#020202"/>
<path d="M51.4966 21.9413C51.4358 21.7589 51.2535 21.6374 51.0712 21.5766C50.828 21.5158 50.6457 21.5766 50.4633 21.6981C50.281 21.8197 50.2202 22.0021 50.1594 22.1844C50.1594 22.306 50.1594 22.3668 50.1594 22.4883C50.0378 22.7923 50.0377 23.0962 50.0377 23.4001C50.0985 23.6432 50.2809 23.7648 50.524 23.7648C51.0711 23.704 51.4357 23.2178 51.5573 22.7315C51.6181 22.4276 51.6182 22.1236 51.4966 21.9413Z" fill="#020202"/>
<path d="M42.8046 22.1235C42.7438 21.9411 42.5615 21.8195 42.3791 21.7587C42.136 21.6979 41.9536 21.7587 41.7713 21.8803C41.5889 22.0019 41.5281 22.1842 41.4674 22.3665C41.4674 22.4881 41.4674 22.5489 41.4674 22.6705C41.3458 22.9744 41.3458 23.2783 41.3458 23.5822C41.4066 23.8254 41.5888 23.947 41.832 23.947C42.379 23.8862 42.7439 23.3999 42.8654 22.9136C42.9262 22.6097 42.9261 22.3666 42.8046 22.1235Z" fill="#020202"/>
<path d="M53.6242 18.4152C51.4967 17.8682 49.3692 19.6309 48.5182 21.4544C48.032 22.5485 47.9104 23.7643 47.9104 24.9192C47.9104 25.4662 47.9105 26.0132 48.0321 26.5603C48.1537 26.925 48.3359 27.6544 48.883 27.5328C49.0654 27.472 49.2478 27.2897 49.2478 27.0466C49.187 26.8642 49.1261 26.7427 49.0045 26.6819C49.0045 26.6819 49.0046 26.6211 48.9438 26.6211C48.8831 26.4995 48.8829 26.4387 48.8222 26.3171C48.7614 26.1348 48.7614 25.8917 48.7006 25.6485C48.6398 25.223 48.7006 24.7976 48.7006 24.3721C48.7614 23.4603 48.883 22.4878 49.3085 21.6368C49.6732 20.9682 50.1594 20.3603 50.8281 19.8741C51.4967 19.3878 52.4693 18.9016 53.3203 19.1447C53.8065 19.327 54.1104 18.5368 53.6242 18.4152Z" fill="#020202"/>
<path d="M50.7673 29.0527C49.5516 29.0527 48.3966 29.5998 47.6064 30.5116C47.4848 30.6939 47.5457 30.9371 47.6672 31.0586C47.8496 31.1802 48.0927 31.1194 48.2142 30.9979C48.275 30.9371 48.2751 30.937 48.3359 30.8762C48.3967 30.8155 48.3967 30.8155 48.4575 30.7547C48.579 30.6939 48.6398 30.5723 48.7614 30.5116C48.9437 30.3292 49.1261 30.2684 49.3692 30.1469C49.5516 30.0253 49.7947 29.9645 49.9771 29.9037C50.0986 29.9037 50.2201 29.843 50.3417 29.843C50.4025 29.843 50.4633 29.843 50.5241 29.843H50.5849C50.5849 29.843 50.7064 29.843 50.6456 29.843C50.8887 29.843 51.0712 29.7214 51.0712 29.4783C51.132 29.2959 50.9496 29.0527 50.7673 29.0527Z" fill="#020202"/>
<path d="M33.3222 30.9978C32.532 32.8213 31.8635 34.6448 31.3164 36.5291C30.8301 38.2918 30.2222 39.9938 29.3712 41.635C28.8242 41.6958 26.9399 41.8781 24.6909 42.5467C24.5693 42.5467 24.5085 42.6075 24.387 42.6683L24.5693 42.7899C24.6301 42.8507 24.6909 42.9114 24.6909 42.9722C24.7517 42.9722 24.7516 42.9722 24.8124 42.9114C24.9948 42.9722 25.1772 43.0938 25.3596 43.1546C27.2439 42.6683 28.7634 42.4859 29.3712 42.4251L29.4321 42.486C29.6752 42.5467 29.8575 42.4252 29.9791 42.2428C30.9516 40.5409 31.5594 38.7173 32.1065 36.833C32.6535 34.9487 33.3222 33.0644 34.1124 31.3017C34.2947 30.8154 33.5653 30.5115 33.3222 30.9978Z" fill="white"/>
<path d="M32.5928 24.1293C33.0791 23.8861 33.5653 23.8253 34.1124 24.0685C34.5986 24.3116 34.9634 24.6763 35.3889 25.1018C35.7536 25.4665 36.4221 24.9803 36.0574 24.6156C35.2672 23.8254 34.2948 22.9136 33.0791 23.1567C31.985 23.3999 30.8909 24.1901 30.3438 25.1626C29.2497 27.0469 30.1006 29.539 31.9849 30.5723C33.0183 31.1802 34.2947 31.3625 35.4496 31.1194C35.9359 30.9978 35.8751 30.2077 35.3281 30.3293C33.6869 30.694 31.8027 30.0861 31.0125 28.5057C30.6478 27.7763 30.587 26.8646 30.8301 26.1351C31.0732 25.1018 31.7418 24.5547 32.5928 24.1293Z" fill="#020202"/>
<path d="M35.8751 27.9586C35.6928 27.7762 35.4496 27.6546 35.2064 27.4723C34.9633 27.3507 34.6594 27.1684 34.4162 27.0468C33.8692 26.7429 33.3221 26.439 32.7751 26.1351C32.5927 26.0135 32.3497 26.1959 32.2281 26.3782C32.1673 26.6213 32.2888 26.8036 32.4712 26.9252C33.0182 27.2291 33.5046 27.4723 34.0516 27.7762C34.5379 28.0193 35.024 28.2625 35.4495 28.6272C35.6319 28.7488 35.8751 28.688 35.9967 28.5664C36.1182 28.3233 36.0575 28.0801 35.8751 27.9586Z" fill="#020202"/>
<path d="M45.1751 19.3882C43.5947 18.1117 41.4673 17.6254 39.4614 18.0509C38.9752 18.1725 39.0967 18.9627 39.583 18.8411C41.3457 18.4156 43.2909 18.8411 44.6889 19.996C45.0536 20.3607 45.5398 19.7529 45.1751 19.3882Z" fill="#020202"/>
<path d="M54.2319 30.3899C53.0163 33.186 50.5848 35.3742 47.6064 36.1644C47.4241 36.2252 47.3026 36.2252 47.1203 36.2859C46.8163 36.3467 46.4516 36.4075 46.1477 36.4683C46.0261 36.4075 45.9653 36.286 45.8437 36.2252C45.0535 35.6781 44.0202 35.5565 43.1085 35.9213C42.9261 35.982 42.7438 36.1036 42.5615 36.2252C42.1968 36.1644 41.8928 36.0428 41.5889 35.9213C41.8928 35.7389 42.1359 35.4957 42.5006 35.3742C42.8653 35.4957 43.2908 35.5565 43.7163 35.6173C44.6281 35.7389 45.5398 35.7389 46.3907 35.6173C48.275 35.3742 50.0986 34.5232 51.4967 33.1252C53.4418 31.1801 54.4751 28.3233 54.2319 25.588C54.1712 25.0409 54.9614 24.9802 55.0222 25.4665C55.1437 27.1076 54.9006 28.8096 54.2319 30.3899Z" fill="#020202"/>
<path d="M58.0004 87.1624C57.8788 84.3056 57.4533 81.5095 56.7847 78.7135C56.6024 77.8625 56.3592 76.9507 56.0553 76.0997C55.9945 75.9782 55.9337 75.8566 55.8121 75.8566C55.7513 75.6135 55.6907 75.3096 55.6299 75.0664C55.2652 73.7292 54.9004 72.392 54.5357 71.1155C54.171 69.8998 53.867 68.6234 53.3807 67.4685C52.8945 66.192 52.2868 64.9763 51.375 64.0037L51.3142 63.943C50.4632 61.8763 49.6122 59.8097 48.5789 57.8038C48.5789 57.743 48.5789 57.6823 48.5789 57.6823C48.6397 57.4999 48.6396 57.3783 48.7004 57.196C49.1259 55.7372 49.0651 54.1568 48.518 52.6979C48.3357 52.0901 48.0318 51.5431 47.6063 50.996C47.5455 50.9353 47.4848 50.8744 47.424 50.8744C47.3025 50.6313 47.2417 50.3882 47.1201 50.1451C48.0927 50.2666 49.0652 49.8411 49.673 49.1117C49.8554 48.9293 49.9769 48.6862 50.0985 48.5038C50.22 48.5038 50.2808 48.4431 50.3416 48.3215C51.0102 47.2274 51.071 45.9509 50.5848 44.796C50.4024 44.249 50.1593 43.702 49.8554 43.2157C49.9162 42.9118 49.9162 42.6078 49.8554 42.3039C49.7946 42 49.673 41.6961 49.5515 41.3922C49.5515 41.2098 49.4906 41.0274 49.4298 40.8451C49.3082 40.5412 49.1259 40.2981 48.8828 40.0549C48.822 39.9942 48.7613 39.9334 48.6397 39.8726C48.0927 39.0216 47.6063 38.1706 47.0593 37.3197C46.9377 37.0158 46.8161 36.7726 46.573 36.5295C46.5122 36.4687 46.5123 36.4687 46.5123 36.4687C46.3907 36.3471 46.2082 36.3471 46.0867 36.4079C45.5396 35.9216 44.8711 35.6177 44.2025 35.6177C44.1417 35.6177 44.0808 35.6177 43.9592 35.6177C43.7161 34.6452 43.4731 33.7334 43.1692 32.7609C42.926 31.9707 42.622 31.1805 42.0142 30.6334C40.6769 29.2354 38.6103 29.6001 37.3339 30.8765C36.8476 31.3628 36.4829 31.8491 36.1182 32.457C35.8143 32.7609 35.6319 33.1255 35.5103 33.551C35.5103 33.6726 35.5103 33.7942 35.5103 33.8549C34.1123 36.1647 32.9574 38.7177 33.079 41.3922C32.9574 41.4529 32.8966 41.5745 32.8966 41.7569C33.3221 44.3706 33.6868 46.9235 34.1123 49.5372C34.2946 50.7529 34.4162 51.9685 34.9025 53.0626C35.0241 53.3666 35.2064 53.6705 35.328 54.0352C35.328 54.096 35.2672 54.1567 35.328 54.2783C35.7534 56.7097 36.422 59.0803 37.273 61.3901C37.5769 63.2136 38.0025 64.9763 38.6711 66.6782C38.8534 69.2312 39.522 71.7841 40.4946 74.1547C40.6769 75.2488 40.9201 76.4037 41.1024 77.4978C41.3456 79.0174 41.5887 80.537 42.1966 81.9958C42.1966 82.0566 42.2573 82.1174 42.3181 82.1174C42.3181 82.4821 42.3181 82.8468 42.3181 83.2115C42.3181 83.9409 42.4397 84.7311 42.8044 85.3389C43.1691 86.0076 43.7161 86.5546 44.2632 87.1016C45.4788 88.3781 46.6945 89.6546 47.9102 90.8702C49.7945 92.8153 52.1652 94.8819 55.022 94.0918C56.2985 93.727 57.2101 92.8153 57.6356 91.5389C58.1219 90.08 58.0612 88.5605 58.0004 87.1624ZM40.0083 34.402C40.6161 34.8883 41.0417 35.5569 41.3457 36.2863C41.4064 36.4079 41.4672 36.4687 41.5887 36.5295C41.4672 36.5902 41.3455 36.7118 41.224 36.7726C40.4338 37.3804 39.7652 38.1098 38.975 38.7784C39.3397 37.2588 39.7044 35.8 40.0083 34.402Z" fill="white"/>
<path d="M47.7281 38.7782C47.3634 37.8664 46.877 37.0155 46.1476 36.4077C46.0261 36.3469 45.9653 36.2253 45.8437 36.1645C45.0535 35.6175 44.0202 35.4959 43.1084 35.8606C42.9261 35.9214 42.7438 36.043 42.5614 36.1645C41.8928 36.59 41.3458 37.1371 40.7379 37.6234C39.0968 39.0822 37.5164 40.6625 35.9968 42.3037C35.6321 42.6684 34.9634 42.1821 35.3281 41.8174C36.3006 40.7841 37.2732 39.8115 38.3066 38.7782C39.1575 37.9272 40.0692 37.137 40.981 36.3468C41.1634 36.1645 41.3457 36.043 41.5888 35.8606C41.8928 35.6783 42.1359 35.4351 42.5006 35.3135C42.9261 35.0704 43.3515 34.9489 43.8378 34.8881C44.8104 34.8273 45.6613 35.0704 46.3907 35.5567C46.6946 35.739 46.9378 35.9822 47.1809 36.2253C47.7888 36.8331 48.2142 37.6233 48.5181 38.4135C48.6397 38.8998 47.9104 39.2645 47.7281 38.7782Z" fill="#020202"/>
<path d="M47.5457 38.596C46.4516 38.4745 45.3575 38.9608 44.385 39.447C43.2301 39.9941 42.1359 40.5411 40.981 41.0882C39.7046 41.696 38.4281 42.3646 37.1516 42.9725C36.6653 43.2156 36.9692 43.945 37.4555 43.7019C39.9477 42.4862 42.5007 41.2097 44.9928 39.994C46.0869 39.5078 47.3025 39.0215 48.3966 39.6293C49.4299 40.2372 49.8555 41.4529 49.4908 42.6078C49.3084 43.094 50.0986 43.398 50.2201 42.9117C50.9495 41.0274 49.6731 38.7784 47.5457 38.596Z" fill="#020202"/>
<path d="M51.1318 44.492C50.9495 43.9449 50.7064 43.2763 50.1594 42.9724C49.8554 42.79 49.5515 42.79 49.1868 42.8508C48.7613 42.9116 48.3357 43.0332 47.9102 43.1547C47.0593 43.3371 46.2692 43.5195 45.4182 43.7018C43.5947 44.1273 41.7711 44.5527 39.9476 45.039C39.4614 45.1606 39.5829 45.9508 40.0692 45.8292C42.8044 45.1606 45.6005 44.492 48.3965 43.8841C48.7004 43.8233 49.0044 43.7626 49.3691 43.7018C49.6731 43.641 49.8553 43.7626 50.0377 44.0057C50.3416 44.5528 50.5239 45.1606 50.6455 45.7684C50.8886 46.9233 50.6456 48.0782 49.7946 48.9292C48.822 49.841 47.3632 49.9625 46.1476 49.3547C45.6613 49.1115 45.4182 49.841 45.8436 50.0841C47.0593 50.7527 48.5789 50.6919 49.7337 49.9017C50.8279 49.2331 51.4965 47.9566 51.5573 46.6802C51.5573 46.0115 51.3749 45.2214 51.1318 44.492Z" fill="#020202"/>
<path d="M47.1809 47.2269C46.9986 47.1053 46.7555 47.1661 46.6339 47.2877C46.1477 47.8955 45.7221 48.6249 45.4789 49.3543C45.4182 49.5367 45.479 49.7799 45.7222 49.9014C45.9045 49.9622 46.2084 49.9014 46.2692 49.6583C46.3907 49.2936 46.5123 48.9289 46.6946 48.625C46.7554 48.5642 46.7555 48.5034 46.8163 48.4426C46.8771 48.3818 46.9378 48.2602 46.9378 48.1994C47.0594 48.0171 47.1809 47.8956 47.3025 47.774C47.424 47.6524 47.3633 47.3485 47.1809 47.2269Z" fill="#020202"/>
<path d="M46.8165 47.5309C46.7557 47.4701 46.6948 47.3486 46.5732 47.2878C46.5124 47.227 46.4516 47.227 46.3908 47.1662C46.3301 47.1662 46.2694 47.1055 46.2086 47.1055C46.087 47.1055 46.0263 47.1055 45.9047 47.1055C45.8439 47.1055 45.7831 47.1055 45.7223 47.1662C45.6615 47.1662 45.6616 47.1662 45.6008 47.227C45.54 47.227 45.4791 47.2878 45.4791 47.3486C45.4183 47.4094 45.4184 47.4094 45.4184 47.4702C45.3576 47.5309 45.3576 47.7133 45.4184 47.7741C45.4792 47.8956 45.5399 47.9564 45.6615 48.0172C45.783 48.078 45.9046 48.078 45.9654 48.0172H46.0262C46.2694 48.1388 46.391 48.1995 46.5125 48.1995C46.6341 48.1995 46.7557 48.1995 46.8165 48.1388C46.8772 48.078 46.9379 47.9564 46.9987 47.8348C46.8771 47.7133 46.8772 47.5917 46.8165 47.5309Z" fill="#020202"/>
<path d="M46.4515 47.5915C46.4515 47.5307 46.3907 47.47 46.3907 47.47C46.3299 47.4092 46.3299 47.4092 46.2692 47.3484C46.2084 47.3484 46.1476 47.2876 46.1476 47.2876C46.0261 47.2876 45.9045 47.2877 45.8437 47.3484L45.7829 47.4092C45.7221 47.47 45.7222 47.5307 45.7222 47.5915V48.0778C45.7222 48.1386 45.7222 48.1994 45.7222 48.2602C45.7222 48.321 45.7829 48.3817 45.7829 48.3817C45.8436 48.4425 45.8438 48.4425 45.9045 48.5033C45.9653 48.5033 46.0261 48.5641 46.0261 48.5641C46.1477 48.5641 46.2692 48.5641 46.33 48.5033L46.3907 48.4425C46.4515 48.3817 46.4515 48.321 46.4515 48.2602V47.7739C46.4515 47.6523 46.4515 47.5915 46.4515 47.5915Z" fill="#020202"/>
<path d="M49.7338 54.8859C49.6122 53.2447 48.6397 51.7252 47.9103 50.2663C47.6671 49.7801 46.9378 50.084 47.1809 50.5703C47.5456 51.2389 47.8495 51.9683 48.2142 52.6369C48.5181 53.3056 48.8221 54.035 48.9437 54.7644C49.1261 56.1016 48.7005 57.4388 47.9103 58.4722C47.6064 58.8977 48.2142 59.384 48.579 58.9585C49.4299 57.8036 49.8554 56.3447 49.7338 54.8859Z" fill="#020202"/>
<path d="M44.871 34.8878C44.3847 33.0643 43.8378 31.1192 42.2574 29.9035C40.8594 28.7486 38.975 28.6878 37.5162 29.8427C36.1182 30.9976 35.2671 32.8819 34.5377 34.5231C34.1123 35.4956 33.6868 36.5289 33.3221 37.5623C32.9574 38.5956 32.6536 39.629 32.532 40.7231C32.4104 41.8172 32.5319 42.9112 32.7142 43.9446C32.8966 45.0387 33.1398 46.1328 33.3829 47.2269C33.8692 49.4759 34.3554 51.6641 34.9025 53.9131C35.9358 58.3504 37.0907 62.7268 38.2456 67.1033C38.8535 69.2915 39.4004 71.4797 40.0083 73.6679C40.6161 75.7953 41.2848 77.9836 41.5887 80.1718C41.6495 80.7189 41.7103 81.2659 41.7103 81.8737C41.7103 82.4208 42.5005 82.2992 42.5005 81.7522C42.4397 79.6247 41.8319 77.5581 41.2848 75.4914C40.7378 73.4248 40.1299 71.2974 39.5828 69.2307C38.4887 65.0366 37.3339 60.8425 36.3006 56.6484C35.2672 52.4543 34.2946 48.321 33.5044 44.0662C33.3221 42.9721 33.1398 41.9387 33.2614 40.8446C33.3829 39.8113 33.6869 38.8387 34.0516 37.8054C34.7202 35.9211 35.5103 34.0368 36.5436 32.2741C36.9691 31.5447 37.5162 30.7545 38.2456 30.2682C39.0358 29.7211 40.0084 29.6604 40.8593 30.0251C42.8652 30.8761 43.473 33.1251 44.0201 35.0094C44.2024 35.4956 44.9926 35.3741 44.871 34.8878Z" fill="#020202"/>
<path d="M41.7104 36.2255C41.0417 35.4961 40.6163 34.5843 40.5555 33.6118C40.5555 33.3686 40.3124 33.2471 40.0692 33.2471C39.8261 33.3079 39.7045 33.4902 39.7045 33.7334C39.826 34.8275 40.3124 35.9216 41.0418 36.7118C41.1634 36.8941 41.4065 36.9549 41.5888 36.7726C41.832 36.651 41.8319 36.3471 41.7104 36.2255Z" fill="#020202"/>
<path d="M40.4342 34.0981C40.2518 34.0373 39.9478 34.0981 39.887 34.3412C39.4615 35.8608 38.9145 37.3196 38.2459 38.7177C38.0027 39.2039 38.7929 39.5078 38.9753 39.0216C39.6439 37.6235 40.1301 36.1648 40.6164 34.6452C40.738 34.402 40.6165 34.1589 40.4342 34.0981Z" fill="#020202"/>
<path d="M47.5457 8.99388C45.3575 13.5527 42.2575 17.6252 38.4281 20.9684C37.334 21.9409 36.179 22.7918 35.0241 23.582C34.5987 23.8859 35.085 24.4938 35.5104 24.2507C39.7653 21.3331 43.4123 17.5644 46.1476 13.188C46.9378 11.9723 47.6672 10.635 48.2751 9.2978C48.579 8.81153 47.7888 8.50761 47.5457 8.99388Z" fill="#020202"/>
<path d="M52.1044 14.1C51.4358 13.3706 50.5848 12.9451 49.6731 12.5804C48.8221 12.2157 47.9104 11.9726 47.1202 11.4255C46.6947 11.1216 46.2084 11.7903 46.6339 12.0942C47.4241 12.6413 48.3358 12.9452 49.1868 13.3099C50.0377 13.6138 50.8888 13.9785 51.4966 14.6471C51.6182 14.8295 51.8612 14.8902 52.0436 14.7079C52.1652 14.5255 52.226 14.2216 52.1044 14.1Z" fill="#020202"/>
<path d="M99.3944 43.9446C99.3336 45.221 99.0297 46.4976 98.4826 47.6525C98.1179 49.7191 97.814 51.9681 96.2944 53.6092C96.2336 53.7308 96.1121 53.7916 96.0513 53.9131C95.5042 54.7641 94.8356 55.4327 94.0454 56.1014C93.0728 56.8915 92.0394 57.621 91.0669 58.3504L86.1435 61.9974C86.1435 62.0582 86.1435 62.0582 86.1435 62.119C86.3258 61.9974 86.6297 62.0582 86.6905 62.3014C87.2375 63.5778 87.8454 64.8542 88.3925 66.1307C89.365 68.3797 90.3983 70.6288 91.3708 72.8778C91.7963 73.9111 92.2826 74.8836 92.6473 75.9777C93.2552 77.0111 93.9845 77.9836 94.2885 79.1385C94.5924 80.4149 94.3493 81.7522 94.0454 82.9679C93.7415 84.062 93.4375 85.2777 92.7689 86.2502C92.0395 87.2835 90.9454 87.6482 89.7905 87.8306C88.5141 88.0129 87.1767 88.0129 85.9003 87.8306C84.6238 87.6482 83.3474 87.3443 82.1317 86.8581C81.0376 86.4326 79.9435 85.8247 79.0925 84.9737C78.1807 84.1227 77.6945 83.0286 77.269 81.8737C76.7219 80.5365 76.2357 79.1993 75.6887 77.862C74.6554 75.2483 73.5612 72.5738 72.7102 69.8993C71.9808 67.5288 71.3122 64.9758 71.7377 62.4837C71.9201 61.3288 72.3455 60.2347 73.075 59.2622C73.8044 58.3504 74.7161 57.6209 75.7494 57.0131C77.816 55.7974 80.1258 55.1896 82.1317 53.9739C82.0709 53.9739 82.0101 53.9132 81.9493 53.8524C81.5846 53.4877 81.3415 53.0622 81.0984 52.5759C80.6729 51.7857 80.4298 50.9956 80.6729 50.0838C80.9769 48.9897 82.0102 48.3818 82.618 47.4701C82.2533 46.0113 83.2258 44.6132 84.7454 44.3701C85.718 44.2485 86.6905 44.3701 87.6631 44.4916C88.0886 44.5524 88.5141 44.6132 88.8788 44.7348C87.7847 43.9446 86.7512 42.9721 85.9003 41.9388C85.414 41.3917 84.9278 40.7231 84.563 40.1152C84.1983 39.5074 84.1375 38.778 84.6846 38.231C85.7787 37.0153 87.4199 37.8662 88.6355 38.4133C91.1277 39.6897 93.2551 41.4525 95.0178 43.5799C95.5649 42.425 94.9572 41.027 94.2278 40.1152C93.3768 38.9603 92.2218 37.9878 91.6747 36.6505C91.4316 36.0427 91.2492 35.3133 91.3708 34.7055C91.4924 34.0976 91.9787 33.7329 92.5258 33.6113C93.7415 33.3074 94.8964 34.0976 95.7474 34.9486C96.1729 35.3741 96.5374 35.8603 96.8414 36.3466C96.8414 36.3466 96.9022 36.3467 96.9022 36.4074C98.5434 37.6231 99.1512 39.6897 99.212 41.6956C99.212 42.3034 99.1512 42.972 99.0296 43.5799C99.212 43.5191 99.3944 43.7014 99.3944 43.9446Z" fill="white"/>
<path d="M99.82 44.0664C99.6376 45.586 99.3336 47.1056 98.9689 48.5644C98.6042 50.0232 98.3003 51.482 97.6317 52.8193C97.0239 54.0957 96.0514 55.0682 94.9573 55.98C92.4044 58.1074 89.5475 59.931 86.9338 61.9976C86.7515 62.18 86.5083 62.3015 86.326 62.4839C84.8672 63.6387 83.5299 64.9152 82.3142 66.3133C81.9495 66.7388 81.3416 66.2524 81.6455 65.827C82.8612 64.3682 84.2593 63.0917 85.7789 61.876C85.9612 61.6937 86.2043 61.5114 86.3867 61.3898C86.9945 60.9035 87.6024 60.4172 88.2102 59.9917C90.3376 58.4113 92.5259 56.9526 94.5318 55.2506C95.0789 54.8251 95.6259 54.3389 96.0514 53.7918C96.4769 53.2447 96.7807 52.6977 97.0239 52.0291C97.5709 50.631 97.9356 49.1722 98.2395 47.7742C98.5435 46.3154 98.8474 44.7957 98.9689 43.3369C99.1513 41.9389 99.1513 40.4802 98.665 39.1429C97.7532 36.8939 95.6866 35.3135 93.8023 33.9154C93.3768 33.6115 93.8631 32.9429 94.2886 33.2468C96.4768 34.888 98.9082 36.7723 99.6376 39.5684C100.124 41.088 100.002 42.6076 99.82 44.0664Z" fill="#020202"/>
<path d="M96.416 53.1234C96.4767 53.6705 95.6865 53.7312 95.6257 53.2449C95.3826 50.8136 95.9904 48.1999 95.3218 45.8293C95.2002 45.4646 95.0788 45.0999 94.9572 44.796C94.8964 44.6136 94.7748 44.4313 94.714 44.3097C94.714 44.249 94.6533 44.1881 94.6533 44.1881C94.5317 43.945 94.3493 43.7019 94.167 43.4588C93.6199 42.7294 93.0121 42.0607 92.3435 41.4529C91.6748 40.845 90.8846 40.2372 90.1552 39.6901C89.365 39.0823 88.5748 38.4745 87.6023 38.1097C86.8729 37.8058 85.9611 37.8059 85.2925 38.2921C84.5023 38.8392 84.5631 39.8117 84.9886 40.6019C85.4748 41.5136 86.265 42.3038 86.9945 42.9725C87.6023 43.5803 88.2709 44.1274 88.9395 44.6744C89.1219 44.796 89.3043 44.9783 89.4866 45.0999C89.5474 45.0999 89.5473 45.1607 89.5473 45.1607C89.6689 45.343 89.6082 45.5862 89.4258 45.7077C89.365 45.7077 89.3043 45.647 89.1827 45.647C89.1219 45.647 89.0003 45.5862 88.9395 45.5862C88.8179 45.5254 88.6356 45.4646 88.514 45.4646C88.0278 45.0999 87.5416 44.6744 87.0553 44.2489C86.6298 43.8842 86.2043 43.4587 85.8396 43.0332C84.9886 42.1823 84.0769 41.2097 83.8337 39.994C83.5906 39.0215 84.016 38.049 84.867 37.5019C85.6572 37.0156 86.6905 36.9549 87.6023 37.198C88.6356 37.5019 89.5473 38.2314 90.4591 38.8392C91.3101 39.447 92.1003 40.1156 92.8905 40.7843C93.4375 41.2705 93.9846 41.8783 94.4709 42.4254C94.6532 42.6685 94.8356 42.9117 94.9572 43.0941C94.9572 43.1549 95.0179 43.1548 95.0179 43.2156C95.2002 43.4587 95.3218 43.7627 95.5042 44.0058C95.8081 44.5529 96.0513 45.0999 96.1729 45.7077C96.7199 48.1999 96.1728 50.6921 96.416 53.1234Z" fill="#020202"/>
<path d="M89.4865 45.0394C89.3041 44.9178 89.0001 45.1002 88.9393 45.2825C88.9393 45.3433 88.9393 45.404 88.9393 45.4648C89.0001 45.4648 89.1218 45.5257 89.1826 45.5257C89.2433 45.5257 89.3042 45.5864 89.3649 45.5864C89.7904 45.7688 90.2158 45.9511 90.5198 46.3158C90.3982 45.7688 89.9727 45.2825 89.4865 45.0394Z" fill="#020202"/>
<path d="M93.3766 54.3996C92.8903 52.88 92.4648 51.2996 91.9785 49.78C91.6138 48.6859 91.3708 47.4094 90.5806 46.4977C90.5199 46.4369 90.5197 46.4368 90.459 46.3761C90.155 46.0721 89.7296 45.829 89.3041 45.6467C89.2433 45.6467 89.1826 45.5859 89.061 45.5859C89.0003 45.5859 88.8786 45.5251 88.8178 45.5251C88.6962 45.4644 88.5139 45.4035 88.3924 45.4035C87.9669 45.282 87.5413 45.1604 87.1158 45.0388C86.508 44.9173 85.8394 44.7957 85.1708 44.7349C84.6237 44.6741 83.9551 44.5526 83.4688 44.7957C82.9218 45.0388 82.7395 45.7075 82.6179 46.1938C82.5571 46.3761 82.4964 46.5585 82.4964 46.8016C82.4356 47.0447 82.4355 47.2271 82.4355 47.4702C82.4355 47.5918 82.4355 47.7133 82.4355 47.7741C82.3139 47.8349 82.2532 47.8957 82.1316 47.9565C82.01 48.0781 81.8885 48.1996 81.767 48.3212C81.7062 48.3212 81.7061 48.3212 81.6453 48.382C81.5845 48.3212 81.5846 48.1996 81.5846 48.1388C81.5846 47.9565 81.5846 47.7741 81.5846 47.5917C81.5846 47.531 81.5846 47.4702 81.5846 47.3487C81.6454 46.7408 81.7669 46.1938 81.9492 45.5859C82.1316 44.9173 82.4963 44.2487 83.2257 44.0056C83.7728 43.7624 84.4414 43.8232 85.0492 43.8839C85.6571 43.9447 86.3258 44.0055 86.9336 44.1879C87.0552 44.1879 87.1767 44.2486 87.2982 44.2486C87.7845 44.3702 88.2709 44.4918 88.7571 44.6134C89.6081 44.8565 90.459 45.282 91.0668 45.8898C91.9785 46.8624 92.2825 48.2604 92.6472 49.4761C93.1335 50.9957 93.559 52.5761 94.0453 54.0957C94.2884 54.5819 93.559 54.8858 93.3766 54.3996Z" fill="#020202"/>
<path d="M91.2492 55.0683C90.8845 54.3389 90.4591 53.6095 89.912 53.0016C89.3649 52.3938 88.7571 51.8467 88.2709 51.2389C87.4199 50.2056 86.8728 48.8684 85.7787 47.9566C85.2924 47.5311 84.6845 47.2879 84.0767 47.2879H84.016C83.7729 47.2879 83.5298 47.3488 83.2866 47.4095C83.0435 47.4703 82.8003 47.5919 82.6179 47.7742C82.4964 47.835 82.4356 47.8958 82.314 47.9566C82.1925 48.0782 82.0708 48.1997 81.9493 48.3213C81.6453 48.686 81.4022 49.1115 81.2199 49.537C80.9767 50.1448 80.7944 50.8742 80.7944 51.482C80.8552 52.2114 81.5238 52.8193 81.9493 53.3663C82.01 53.4271 82.0709 53.5487 82.1316 53.6095C82.314 53.8526 82.4964 54.0349 82.6179 54.2781C82.3748 54.3996 82.1317 54.5213 81.8886 54.6428C81.7062 54.3997 81.5238 54.2173 81.4023 53.9742C81.2199 53.731 81.0376 53.4879 80.8553 53.2448C80.6121 52.9409 80.3082 52.5762 80.1866 52.2115C80.0042 51.786 80.0043 51.2997 80.065 50.8742C80.2474 49.5369 80.7944 48.1997 81.8277 47.2879C81.9493 47.2271 82.0101 47.1056 82.1316 47.0449C82.314 46.9233 82.4963 46.8017 82.7395 46.7409C82.9218 46.6801 83.1043 46.6193 83.2866 46.5585C83.5298 46.4978 83.8336 46.437 84.0767 46.437C84.8061 46.437 85.5356 46.6801 86.1434 47.1056C87.4199 48.0782 88.0278 49.5977 89.0611 50.8134C89.6081 51.4213 90.2159 51.9683 90.7629 52.6369C91.2492 53.3056 91.7356 53.9742 92.1003 54.7036C92.2218 55.2507 91.4316 55.5546 91.2492 55.0683Z" fill="#020202"/>
<path d="M95.261 41.8778C95.261 42.3641 95.0786 42.7895 94.8963 43.2758C94.8963 43.3366 94.8356 43.4582 94.8356 43.519C94.7748 43.7621 94.6531 44.0053 94.5924 44.3092C94.5924 44.2484 94.5317 44.1876 94.5317 44.1876C94.4101 43.9444 94.2277 43.7013 94.0454 43.4582C94.1061 43.2758 94.167 43.0327 94.2277 42.8504C94.2885 42.7288 94.2885 42.6072 94.3493 42.4857C94.4708 41.9994 94.5317 41.5131 94.2277 41.0268C93.9238 40.5406 93.4983 40.1759 93.1336 39.8112C92.7081 39.3857 92.2826 38.8994 91.9179 38.4131C91.1885 37.5621 90.4591 36.5288 90.3983 35.3739C90.3376 33.4896 92.5257 32.2739 94.1061 33.2465C94.5315 33.4896 94.0454 34.1582 93.6199 33.9151C92.9513 33.4896 91.9787 33.7935 91.4925 34.4014C90.8846 35.1916 91.31 36.3465 91.8571 37.0759C92.4649 37.9876 93.2551 38.7778 93.9845 39.568C94.6531 40.1759 95.3218 40.9053 95.261 41.8778Z" fill="#020202"/>
<path d="M84.1376 53.5486C83.6513 53.7918 83.1042 54.0349 82.618 54.278C82.3748 54.3996 82.1317 54.5212 81.8886 54.6428C81.4023 54.8859 80.916 55.129 80.4297 55.3114C80.1865 55.433 79.8827 55.5545 79.6396 55.6761C78.5455 56.2231 77.4514 56.7094 76.418 57.2564C74.5945 58.1682 72.7709 59.3231 72.1023 61.329C71.7376 62.4231 71.7377 63.578 71.8592 64.6721C71.9808 65.8878 72.2239 67.0426 72.5886 68.1975C73.2572 70.5681 74.2905 72.8171 75.2631 75.1269C76.2964 77.5583 77.3298 79.9896 78.3631 82.3602C78.5454 82.8465 77.8161 83.1504 77.6337 82.6641C76.418 79.8073 75.2023 77.0112 74.0474 74.1544C73.0748 71.8446 72.1023 69.474 71.4945 66.9819C71.0082 64.7936 70.6436 62.1799 71.7377 60.0525C72.771 58.1074 74.7161 57.0741 76.6004 56.1624C77.4514 55.7369 78.2415 55.3722 79.0925 54.9467C79.3356 54.8251 79.6396 54.7035 79.8827 54.5819C80.369 54.3388 80.9161 54.0957 81.4631 53.8526C81.7063 53.731 81.9494 53.6094 82.1925 53.4879C82.7396 53.184 83.3474 52.9408 83.8945 52.6369C84.2592 52.5761 84.563 53.3055 84.1376 53.5486Z" fill="#020202"/>
<path d="M56.8456 93.6053C54.3535 96.766 50.9494 98.4072 46.9985 98.4072C46.8769 98.4072 46.6946 98.4072 46.573 98.4072C40.1907 98.2249 33.383 93.7268 28.2772 86.372C25.9066 82.9681 23.7791 79.6858 21.9556 76.6466C22.1987 76.525 22.4418 76.4034 22.6849 76.2819C24.5085 79.3211 26.5751 82.5426 28.9457 85.8857C33.93 92.9974 40.4947 97.3739 46.6339 97.5562C50.524 97.6778 53.8671 96.0974 56.2985 93.0582C62.62 85.0347 48.7005 58.533 48.5789 58.2899C48.4574 58.1075 48.579 57.8644 48.7613 57.7428C48.9437 57.6212 49.1867 57.7427 49.3083 57.9251C49.7946 59.0192 63.471 85.1563 56.8456 93.6053Z" fill="#020202"/>
<path d="M94.1669 89.9581C91.2493 93.1797 87.2376 93.5444 86.022 93.6051C85.9004 93.6051 85.7788 93.6051 85.6572 93.6051C76.9043 93.6051 69.3063 84.0013 68.9416 83.6366C68.8201 83.4542 68.8201 83.2111 69.0025 83.0895C69.1848 82.9679 69.4279 82.9679 69.5495 83.1503C69.6103 83.2718 77.4513 93.0581 85.9003 92.8149C86.9944 92.7541 90.7631 92.4502 93.4376 89.4718C95.565 87.1012 96.4768 83.5758 96.1728 79.1386C95.8081 74.3974 91.2493 68.1367 86.265 62.6054C86.0827 62.423 85.9004 62.1799 85.718 61.9975C85.9004 61.8152 86.1435 61.6328 86.3259 61.5112C86.5082 61.6936 86.6905 61.9367 86.8729 62.1191C92.3434 68.1975 96.5984 74.3974 96.9631 79.0778C97.4493 83.6974 96.4159 87.3444 94.1669 89.9581Z" fill="#020202"/>
<path d="M69.7318 61.754C68.5769 54.0953 62.4377 51.907 60.7358 51.4815L61.4652 48.7463L60.6749 48.564L59.7632 52.1502L60.1888 52.211C60.2496 52.211 67.6651 53.609 68.9416 61.8756C70.2181 70.1422 66.4495 72.3912 66.3887 72.3912L66.0848 72.5736L68.6985 83.0892L69.4886 82.9069L67.0572 72.9383C67.969 72.2697 70.8867 69.4128 69.7318 61.754Z" fill="#020202"/>
<path d="M35.6321 9.2373C34.7203 10.5138 33.2615 11.4255 31.8026 11.9726C30.9517 12.2765 30.1007 12.5197 29.2498 12.702C28.7635 12.8236 27.9733 13.0059 27.8517 13.6138V13.6746C28.4595 13.6746 29.1282 13.6137 29.7361 13.5529C30.2831 13.4922 30.3439 14.2824 29.8576 14.3432C28.7635 14.4647 27.6693 14.5255 26.636 14.4647C25.6635 14.4647 24.691 14.4039 23.7792 14.1608C22.9282 13.9784 22.138 13.553 21.6518 12.8236C21.2263 12.1549 21.044 11.3648 20.9832 10.5746C20.8617 8.99421 20.9225 7.23147 21.5911 5.71188C22.1989 4.25306 23.4753 3.21974 24.8125 2.36876C27.4262 0.788384 31.0733 -1.09598 33.9909 0.788325C35.3282 1.6393 36.1791 3.15891 36.5438 4.67851C36.8477 6.1981 36.6046 7.90005 35.6321 9.2373Z" fill="#020202"/>
<path d="M24.083 19.51C23.4752 21.3335 22.4419 22.9747 21.1047 24.3119C19.7674 25.6492 18.1262 26.5609 16.3635 27.3511C14.6008 28.0805 12.838 28.6884 11.1969 29.7217C9.61649 30.755 8.33999 32.153 7.67137 33.9157C7.36745 34.7667 7.18507 35.7393 7.18507 36.651C7.18507 37.1373 7.18519 37.5628 7.30676 38.0491C7.36754 38.5354 7.61068 39.0824 7.61068 39.6294C7.54989 40.6628 6.39497 41.149 5.60478 41.453C4.69302 41.7569 3.84199 42.1216 3.11258 42.7294C1.71455 43.8235 0.681255 45.4039 0.255768 47.1667C-0.230503 48.9902 0.012603 50.996 0.681226 52.7587C1.47142 54.643 2.74794 56.2235 4.3891 57.4392C5.30086 58.1078 6.27337 58.7156 7.24591 59.3842C8.27924 60.0528 9.31262 60.6607 10.346 61.3293C10.8322 61.6333 11.3793 61.9979 11.8655 62.3019C12.291 62.6058 12.7772 61.9372 12.3517 61.6333C10.3458 60.3568 8.34002 59.0803 6.33416 57.8038C4.57142 56.6489 2.99107 55.3725 1.95775 53.549C1.04599 51.9078 0.559688 49.9627 0.863607 48.0177C1.10674 46.3157 2.01856 44.6745 3.35581 43.5804C4.08521 42.9726 4.8754 42.6079 5.78716 42.304C6.69892 42 7.61056 41.5746 8.09683 40.7236C8.33996 40.3589 8.46153 39.9334 8.40075 39.4471C8.33996 38.9609 8.15761 38.4138 8.09683 37.9275C7.97526 37.0158 7.97532 36.104 8.15767 35.1923C8.58316 33.3688 9.67721 31.7884 11.136 30.6942C12.6556 29.6001 14.3576 28.9923 16.0596 28.3237C17.7615 27.5943 19.4634 26.8041 20.8614 25.5276C22.2595 24.3119 23.4144 22.7923 24.2046 21.1511C24.3869 20.7256 24.5694 20.3002 24.7517 19.8139C25.0556 19.3276 24.2654 19.0237 24.083 19.51Z" fill="#020202"/>
<path d="M15.5484 23.988C14.8797 23.3194 14.0895 22.8331 13.2385 22.59C13.1778 21.6782 12.8739 20.8272 12.2661 20.1586C10.5641 18.1527 7.46419 17.8488 5.15441 18.9429C4.66814 19.1861 4.97206 19.9154 5.45833 19.6723C7.22106 18.8213 9.46997 18.8822 10.9896 20.0371C11.7798 20.6449 12.266 21.4958 12.3268 22.4076C12.2052 22.4076 12.0837 22.4076 11.9622 22.4076C10.8681 22.4684 10.0171 23.137 9.53082 24.0488C9.04455 24.8998 9.04458 26.0546 9.7132 26.8448C10.0779 27.2703 10.8072 26.9056 11.172 26.6625C11.5974 26.4193 11.9621 26.1154 12.2052 25.6899C12.6915 25.0213 12.9954 24.1703 13.117 23.3193C14.9405 23.8664 16.1563 25.9331 16.7033 27.6351C17.068 28.9115 17.1896 30.2487 16.9464 31.5252C16.8856 32.0114 17.6759 32.133 17.7366 31.6468C18.2837 28.9723 17.5542 25.9331 15.5484 23.988ZM12.0837 24.6566C11.719 25.386 11.1112 25.9939 10.321 26.237C9.95633 25.6899 10.017 25.0213 10.3817 24.4135C10.8072 23.6841 11.5367 23.1978 12.3876 23.2586C12.3876 23.7448 12.2661 24.1704 12.0837 24.6566Z" fill="#C3EB29"/>
<path d="M15.4182 9.07266C15.3574 8.76874 15.1142 8.70796 14.871 8.76874C14.8103 8.76874 14.6887 8.76873 14.628 8.82951C13.5339 9.68048 12.4397 10.5314 11.3455 11.3216C11.1024 11.504 11.1632 11.808 11.3455 11.9903C12.4397 12.9021 13.7162 13.5099 15.0534 13.8746C15.2966 13.9354 15.6004 13.8138 15.6004 13.5707C15.7828 12.0511 15.7221 10.5315 15.4182 9.07266ZM14.6887 9.74127C14.871 10.8354 14.9319 11.8687 14.8103 12.9628C13.8986 12.6589 12.9868 12.2334 12.1966 11.6256C13.0476 11.0177 13.8985 10.4099 14.6887 9.74127Z" fill="#020202"/>
<path d="M68.027 18.9024C69.0724 17.0905 71.6875 17.0905 72.7329 18.9024L80.1236 31.7122C81.1684 33.5232 79.8614 35.7862 77.7706 35.7862H62.9893C60.8985 35.7862 59.5915 33.5232 60.6364 31.7122L68.027 18.9024Z" fill="#FF7B31"/>
<rect x="69.3824" y="22.3105" width="1.995" height="6.23868" rx="0.997501" fill="white"/>
<ellipse cx="70.3796" cy="31.2941" rx="1.24688" ry="1.24774" fill="white"/>
<path d="M95.128 10.4281C94.4711 12.084 93.5471 13.6339 92.4518 14.9922C91.0935 13.897 89.8098 12.7695 88.4515 11.6743C88.259 11.5361 87.8961 11.5158 87.7902 11.7829C86.9951 13.6312 86.0609 15.3626 85.1056 17.1474C85.0845 17.2008 84.9574 17.5213 84.8616 17.607C84.8828 17.5536 84.7436 17.4366 84.6902 17.4154C84.6046 17.3196 84.4978 17.2772 84.4122 17.1814C84.0484 16.8516 83.6313 16.5007 83.2887 16.1175C82.5078 15.4368 81.748 14.7027 81.0205 14.0431C80.7424 13.8092 80.444 13.9381 80.3168 14.2586C79.7346 15.8822 79.1845 17.5805 78.6022 19.2041C78.4115 19.6849 79.2551 19.8959 79.4458 19.4152C79.9433 18.0052 80.4621 16.5418 80.9062 15.1106C81.6337 15.7701 82.3078 16.4085 83.0353 17.068C83.4847 17.4935 83.8806 17.8979 84.3512 18.27C84.7361 18.5464 85.1202 18.5132 85.4288 18.2029C85.7585 17.8391 85.9493 17.3584 86.1934 16.8989C86.4587 16.3859 86.7241 15.873 86.9894 15.36C87.4564 14.4943 87.8912 13.554 88.3048 12.6671L92.2196 15.8892C92.4121 16.0274 92.6469 16.0587 92.8385 15.8875C94.1788 14.379 95.2198 12.6901 95.908 10.7993C96.0987 10.3186 95.3399 9.89394 95.128 10.4281Z" fill="#020202"/>
<path d="M83.505 9.65026C83.6312 9.02031 83.7897 8.46499 83.916 7.83504C84.2219 6.59633 84.4532 5.38984 84.7591 4.15113C84.8964 3.6492 84.0528 3.43816 83.9155 3.94009C83.452 6.04361 82.9885 8.14713 82.5462 10.1972C82.4826 10.3575 82.4834 10.6669 82.3876 10.7525C82.4834 10.6669 82.3554 10.678 82.2697 10.5822C82.1841 10.4864 82.0239 10.4228 81.9382 10.327C81.521 9.97602 81.0827 9.67854 80.6655 9.32758C79.7778 8.60449 78.9222 7.95594 78.0344 7.23285C77.7563 6.99888 77.2553 7.17104 77.2884 7.55511C77.4438 9.65685 77.183 11.7172 76.527 13.6825C76.3363 14.1632 77.1799 14.3743 77.3706 13.8935C77.9953 12.1631 78.2459 10.2842 78.2195 8.48086C78.9682 9.08697 79.6846 9.61848 80.4333 10.2246C80.9039 10.5967 81.4067 11.0435 81.9519 11.3834C82.3902 11.6809 82.8701 11.5622 83.1677 11.1238C83.3694 10.7711 83.3677 10.1522 83.505 9.65026Z" fill="#020202"/>
</svg>
