<svg width="100" height="100" viewBox="0 0 100 100" fill="none" xmlns="http://www.w3.org/2000/svg">
<ellipse cx="97.7062" cy="29.4473" rx="2.2723" ry="2.26532" fill="#FFD7C1"/>
<ellipse cx="97.7074" cy="43.0405" rx="2.27231" ry="2.26532" fill="#FFD7C1"/>
<ellipse cx="97.7074" cy="56.6289" rx="2.27231" ry="2.26532" fill="#FFD7C1"/>
<ellipse cx="97.7077" cy="70.2176" rx="2.27231" ry="2.26532" fill="#FFD7C1"/>
<ellipse cx="81.8231" cy="15.8635" rx="2.27231" ry="2.26531" fill="#FFD7C1"/>
<ellipse cx="81.8252" cy="29.4694" rx="2.27231" ry="2.26532" fill="#FFD7C1"/>
<ellipse cx="81.8252" cy="43.0574" rx="2.27231" ry="2.26532" fill="#FFD7C1"/>
<ellipse cx="81.8252" cy="56.6454" rx="2.27231" ry="2.26532" fill="#FFD7C1"/>
<ellipse cx="81.8255" cy="70.2267" rx="2.27231" ry="2.26531" fill="#FFD7C1"/>
<ellipse cx="81.8252" cy="83.8273" rx="2.27231" ry="2.26532" fill="#FFD7C1"/>
<ellipse cx="65.8936" cy="2.26531" rx="2.27231" ry="2.26531" fill="#FFD7C1"/>
<ellipse cx="65.8933" cy="15.8433" rx="2.27231" ry="2.26531" fill="#FFD7C1"/>
<ellipse cx="65.8933" cy="29.4493" rx="2.27231" ry="2.26532" fill="#FFD7C1"/>
<ellipse cx="65.8933" cy="43.0373" rx="2.27231" ry="2.26531" fill="#FFD7C1"/>
<ellipse cx="65.8936" cy="56.6359" rx="2.27231" ry="2.26532" fill="#FFD7C1"/>
<ellipse cx="65.8933" cy="70.2193" rx="2.27231" ry="2.26532" fill="#FFD7C1"/>
<ellipse cx="65.8933" cy="83.8072" rx="2.27231" ry="2.26532" fill="#FFD7C1"/>
<ellipse cx="65.8936" cy="97.4279" rx="2.27231" ry="2.26531" fill="#FFD7C1"/>
<ellipse cx="49.991" cy="2.26531" rx="2.27231" ry="2.26531" fill="#FFD7C1"/>
<ellipse cx="49.9888" cy="15.8561" rx="2.27231" ry="2.26531" fill="#FFD7C1"/>
<ellipse cx="49.9885" cy="29.4592" rx="2.27231" ry="2.26532" fill="#FFD7C1"/>
<ellipse cx="49.9885" cy="43.0373" rx="2.27231" ry="2.26531" fill="#FFD7C1"/>
<ellipse cx="49.9888" cy="56.6359" rx="2.27231" ry="2.26532" fill="#FFD7C1"/>
<ellipse cx="49.9885" cy="70.2193" rx="2.27231" ry="2.26532" fill="#FFD7C1"/>
<ellipse cx="49.9885" cy="83.8072" rx="2.27231" ry="2.26532" fill="#FFD7C1"/>
<ellipse cx="49.9885" cy="97.4212" rx="2.27231" ry="2.26531" fill="#FFD7C1"/>
<ellipse cx="34.0858" cy="2.26531" rx="2.27231" ry="2.26531" fill="#FFD7C1"/>
<ellipse cx="34.0862" cy="15.8433" rx="2.27231" ry="2.26531" fill="#FFD7C1"/>
<ellipse cx="34.0862" cy="29.4493" rx="2.27231" ry="2.26532" fill="#FFD7C1"/>
<ellipse cx="34.0862" cy="43.0433" rx="2.27231" ry="2.26532" fill="#FFD7C1"/>
<ellipse cx="34.0859" cy="56.6286" rx="2.27231" ry="2.26532" fill="#FFD7C1"/>
<ellipse cx="34.0859" cy="70.2243" rx="2.27231" ry="2.26531" fill="#FFD7C1"/>
<ellipse cx="34.0859" cy="83.8102" rx="2.27231" ry="2.26532" fill="#FFD7C1"/>
<ellipse cx="34.0862" cy="97.4212" rx="2.27231" ry="2.26531" fill="#FFD7C1"/>
<ellipse cx="18.1853" cy="15.8635" rx="2.27231" ry="2.26531" fill="#FFD7C1"/>
<ellipse cx="18.1844" cy="29.4594" rx="2.27231" ry="2.26532" fill="#FFD7C1"/>
<ellipse cx="18.1844" cy="43.0574" rx="2.27231" ry="2.26532" fill="#FFD7C1"/>
<ellipse cx="18.1844" cy="56.6454" rx="2.27231" ry="2.26532" fill="#FFD7C1"/>
<ellipse cx="18.1844" cy="70.2267" rx="2.27231" ry="2.26531" fill="#FFD7C1"/>
<ellipse cx="18.1844" cy="83.8154" rx="2.27231" ry="2.26532" fill="#FFD7C1"/>
<ellipse cx="2.27444" cy="29.4573" rx="2.27231" ry="2.26532" fill="#FFD7C1"/>
<ellipse cx="2.27231" cy="43.0505" rx="2.27231" ry="2.26532" fill="#FFD7C1"/>
<ellipse cx="2.27231" cy="56.6437" rx="2.27231" ry="2.26532" fill="#FFD7C1"/>
<ellipse cx="2.27231" cy="70.2198" rx="2.27231" ry="2.26532" fill="#FFD7C1"/>
<ellipse cx="50.0019" cy="49.8473" rx="32.0004" ry="31.902" fill="#FF7B31"/>
<path d="M50.459 65.0257C51.3457 65.0257 52.261 64.6653 52.8903 64.0303C53.5538 63.3553 53.8971 62.4972 53.9257 61.559C53.9371 61.233 53.8742 60.8954 53.7827 60.5751C53.6282 60.0488 53.325 59.5168 52.936 59.1278C52.6042 58.796 52.2381 58.5672 51.8148 58.3898C51.3743 58.201 50.9624 58.0923 50.4647 58.0923C50.1615 58.0923 49.8069 58.1496 49.5151 58.2239C48.9945 58.3612 48.4225 58.6987 48.0392 59.082C47.4042 59.717 46.9694 60.6437 47.0038 61.5533C47.0324 62.4514 47.347 63.3038 47.9763 63.956C48.6456 64.671 49.5037 64.9742 50.459 65.0257C51.1684 65.0658 51.9921 64.6768 52.4841 64.1905C52.9818 63.6928 53.3536 62.8805 53.3193 62.1654C53.285 61.4275 53.0447 60.6609 52.4841 60.1403C51.9063 59.614 51.2484 59.3452 50.459 59.3051C50.4361 59.3051 50.4132 59.3051 50.3904 59.2994C50.6421 59.3337 50.8995 59.368 51.1512 59.4024C51.0825 59.3909 51.0311 59.3795 50.9681 59.3509C51.197 59.4481 51.4258 59.5454 51.6489 59.6369C51.6088 59.6197 51.5745 59.5969 51.5402 59.574C51.7347 59.7227 51.9235 59.8715 52.118 60.0202C52.0665 59.9801 52.0264 59.9401 51.9864 59.8886C52.1351 60.0831 52.2839 60.2719 52.4326 60.4664C52.4097 60.4321 52.3868 60.3977 52.3697 60.3577C52.4669 60.5865 52.5642 60.8154 52.6557 61.0385C52.6328 60.9755 52.6157 60.9183 52.6042 60.8554C52.6386 61.1071 52.6729 61.3645 52.7072 61.6162C52.7015 61.5304 52.7015 61.5705 52.7072 61.4847C52.6729 61.7364 52.6386 61.9938 52.6042 62.2455C52.6157 62.1769 52.6271 62.1254 52.6557 62.0624C52.5585 62.2913 52.4612 62.5201 52.3697 62.7432C52.3868 62.7032 52.4097 62.6688 52.4326 62.6345C52.2839 62.829 52.1351 63.0178 51.9864 63.2123C52.0264 63.1608 52.0665 63.1208 52.118 63.0807C51.9235 63.2294 51.7347 63.3782 51.5402 63.5269C51.5745 63.504 51.6088 63.4812 51.6489 63.464C51.4201 63.5612 51.1912 63.6585 50.9681 63.75C51.0311 63.7271 51.0883 63.71 51.1512 63.6985C50.8995 63.7329 50.6421 63.7672 50.3904 63.8015C50.4762 63.7958 50.4361 63.7958 50.5219 63.8015C50.2702 63.7672 50.0128 63.7329 49.7611 63.6985C49.8297 63.71 49.8812 63.7214 49.9441 63.75C49.7153 63.6528 49.4865 63.5555 49.2634 63.464C49.3034 63.4812 49.3378 63.504 49.3721 63.5269C49.1776 63.3782 48.9888 63.2294 48.7943 63.0807C48.8458 63.1208 48.8858 63.1608 48.9259 63.2123C48.7771 63.0178 48.6284 62.829 48.4797 62.6345C48.5026 62.6688 48.5254 62.7032 48.5426 62.7432C48.4453 62.5144 48.3481 62.2855 48.2566 62.0624C48.2795 62.1254 48.2966 62.1826 48.3081 62.2455C48.2737 61.9938 48.2394 61.7364 48.2051 61.4847C48.2108 61.5705 48.2108 61.5304 48.2051 61.6162C48.2394 61.3645 48.2737 61.1071 48.3081 60.8554C48.2966 60.924 48.2852 60.9755 48.2566 61.0385C48.3538 60.8096 48.4511 60.5808 48.5426 60.3577C48.5254 60.3977 48.5026 60.4321 48.4797 60.4664C48.6284 60.2719 48.7771 60.0831 48.9259 59.8886C48.8858 59.9401 48.8458 59.9801 48.7943 60.0202C48.9888 59.8715 49.1776 59.7227 49.3721 59.574C49.3378 59.5969 49.3034 59.6197 49.2634 59.6369C49.4922 59.5397 49.721 59.4424 49.9441 59.3509C49.8812 59.3738 49.824 59.3909 49.7611 59.4024C50.0128 59.368 50.2702 59.3337 50.5219 59.2994C50.499 59.2994 50.4762 59.3051 50.4533 59.3051C49.721 59.3051 48.9488 59.6255 48.4282 60.1403C47.9305 60.638 47.5587 61.4503 47.593 62.1654C47.6273 62.9034 47.8676 63.6699 48.4282 64.1905C48.9945 64.6996 49.6867 65.0257 50.459 65.0257Z" fill="white"/>
<path d="M47.5965 38.035C47.5965 39.7283 47.5965 41.4216 47.5965 43.1092C47.5965 45.8093 47.5965 48.5094 47.5965 51.2038C47.5965 51.8274 47.5965 52.4509 47.5965 53.0687C47.5965 53.801 47.9169 54.5732 48.4317 55.0938C48.9294 55.5915 49.7417 55.9634 50.4568 55.929C51.1948 55.8947 51.9613 55.6544 52.4819 55.0938C52.9967 54.5332 53.3171 53.8467 53.3171 53.0687C53.3171 51.3754 53.3171 49.6821 53.3171 47.9946C53.3171 45.2944 53.3171 42.5943 53.3171 39.8999C53.3171 39.2764 53.3171 38.6528 53.3171 38.035C53.3171 37.3027 52.9967 36.5305 52.4819 36.0099C51.9842 35.5122 51.1719 35.1404 50.4568 35.1747C49.7188 35.209 48.9523 35.4493 48.4317 36.0099C47.9226 36.5705 47.5965 37.257 47.5965 38.035Z" fill="white"/>
</svg>
