<svg width="16" height="16" viewBox="0 0 16 16" fill="none" xmlns="http://www.w3.org/2000/svg">
<path d="M7.1671 12.771C4.01607 12.771 1.45047 10.2054 1.44473 7.05438C1.44473 3.89761 4.01033 1.33203 7.1671 1.33203C10.3181 1.33203 12.8895 3.89761 12.8895 7.05438C12.8895 10.2054 10.3239 12.771 7.1671 12.771ZM7.1671 2.47995C4.64742 2.47995 2.59265 4.5347 2.59265 7.05438C2.59265 9.57406 4.64168 11.6231 7.1671 11.6231C9.68678 11.6231 11.7415 9.57405 11.7415 7.04863C11.7415 4.52896 9.69251 2.47995 7.1671 2.47995Z" fill="#C4C4C4"/>
<path d="M13.9856 14.6648C13.8364 14.6648 13.6929 14.6074 13.5781 14.4984L10.3812 11.3014C10.1573 11.0776 10.1573 10.7159 10.3812 10.4921C10.605 10.2683 10.9666 10.2683 11.1905 10.4921L14.3874 13.6891C14.6113 13.9129 14.6113 14.2745 14.3874 14.4984C14.2784 14.6074 14.1349 14.6648 13.9856 14.6648Z" fill="#C4C4C4"/>
</svg>
